HIERARCHY
ROOT Root
{
  OFFSET 0.0 0.0 0.0
  CHANNELS 6 Xposition Yposition Zposition Zrotation Yrotation Xrotation
  JOINT Hips
  {
    OFFSET 0.0 100.0 0.0
    CHANNELS 6 Xposition Yposition Zposition Zrotation Yrotation Xrotation
    JOINT Spine1
    {
      OFFSET -0.013727 5.003763 -0.053727
      CHANNELS 3 Zrotation Yrotation Xrotation
      JOINT Spine2
      {
        OFFSET -0.0 7.125301 -0.029825
        CHANNELS 3 Zrotation Yrotation Xrotation
        JOINT Chest
        {
          OFFSET -1e-06 7.550063 -0.815971
          CHANNELS 3 Zrotation Yrotation Xrotation
          JOINT Neck1
          {
            OFFSET -0.181677 26.311295 -0.553348
            CHANNELS 3 Zrotation Yrotation Xrotation
            JOINT Neck2
            {
              OFFSET -3e-06 7.709397 2.302585
              CHANNELS 3 Zrotation Yrotation Xrotation
              JOINT Head
              {
                OFFSET -5e-06 6.128916 1.953709
                CHANNELS 3 Zrotation Yrotation Xrotation
                JOINT HeadEnd
                {
                  OFFSET 0.003598 16.065403 -1.835379
                  CHANNELS 3 Zrotation Yrotation Xrotation
                }
                JOINT Jaw
                {
                  OFFSET 0.002637 0.475592 3.094941
                  CHANNELS 3 Zrotation Yrotation Xrotation
                }
                JOINT LeftEye
                {
                  OFFSET 3.206381 5.380205 7.586883
                  CHANNELS 3 Zrotation Yrotation Xrotation
                }
                JOINT RightEye
                {
                  OFFSET -3.22244 5.361869 7.558234
                  CHANNELS 3 Zrotation Yrotation Xrotation
                }
              }
            }
          }
          JOINT LeftShoulder
          {
            OFFSET 1.621652 23.237164 5.113413
            CHANNELS 3 Zrotation Yrotation Xrotation
            JOINT LeftArm
            {
              OFFSET 14.919846 2e-06 -5.502326
              CHANNELS 3 Zrotation Yrotation Xrotation
              JOINT LeftForeArm
              {
                OFFSET 28.739307 0.0 -0.002588
                CHANNELS 3 Zrotation Yrotation Xrotation
                JOINT LeftHand
                {
                  OFFSET 27.093981 -1e-06 0.002609
                  CHANNELS 3 Zrotation Yrotation Xrotation
                  JOINT LeftHandThumb1
                  {
                    OFFSET 2.276482 -1.392045 3.191413
                    CHANNELS 3 Zrotation Yrotation Xrotation
                    JOINT LeftHandThumb2
                    {
                      OFFSET 4.012836 -1.828127 1.641654
                      CHANNELS 3 Zrotation Yrotation Xrotation
                      JOINT LeftHandThumb3
                      {
                        OFFSET 2.798515 0.0 -3e-06
                        CHANNELS 3 Zrotation Yrotation Xrotation
                        JOINT LeftHandThumbEnd
                        {
                          OFFSET 3.180793 -4e-06 4e-06
                          CHANNELS 3 Zrotation Yrotation Xrotation
                        }
                      }
                    }
                  }
                  JOINT LeftHandIndex1
                  {
                    OFFSET 3.247555 -0.531998 2.296169
                    CHANNELS 3 Zrotation Yrotation Xrotation
                    JOINT LeftHandIndex2
                    {
                      OFFSET 6.364578 0.01206 0.1786
                      CHANNELS 3 Zrotation Yrotation Xrotation
                      JOINT LeftHandIndex3
                      {
                        OFFSET 3.662364 0.0 0.0
                        CHANNELS 3 Zrotation Yrotation Xrotation
                        JOINT LeftHandIndex4
                        {
                          OFFSET 2.329242 4e-06 4e-06
                          CHANNELS 3 Zrotation Yrotation Xrotation
                          JOINT LeftHandIndexEnd
                          {
                            OFFSET 2.759615 -0.180537 -0.113024
                            CHANNELS 3 Zrotation Yrotation Xrotation
                          }
                        }
                      }
                    }
                  }
                  JOINT LeftHandMiddle1
                  {
                    OFFSET 3.163495 0.240981 1.000332
                    CHANNELS 3 Zrotation Yrotation Xrotation
                    JOINT LeftHandMiddle2
                    {
                      OFFSET 6.19078 -0.259278 -1.002548
                      CHANNELS 3 Zrotation Yrotation Xrotation
                      JOINT LeftHandMiddle3
                      {
                        OFFSET 4.35652 -4e-06 -1e-06
                        CHANNELS 3 Zrotation Yrotation Xrotation
                        JOINT LeftHandMiddle4
                        {
                          OFFSET 2.996877 -8e-06 0.0
                          CHANNELS 3 Zrotation Yrotation Xrotation
                          JOINT LeftHandMiddleEnd
                          {
                            OFFSET 2.304287 -0.294569 -0.031741
                            CHANNELS 3 Zrotation Yrotation Xrotation
                          }
                        }
                      }
                    }
                  }
                  JOINT LeftHandRing1
                  {
                    OFFSET 2.882643 -0.053652 -0.322543
                    CHANNELS 3 Zrotation Yrotation Xrotation
                    JOINT LeftHandRing2
                    {
                      OFFSET 5.854541 -0.486202 -1.373841
                      CHANNELS 3 Zrotation Yrotation Xrotation
                      JOINT LeftHandRing3
                      {
                        OFFSET 4.350578 0.0 3e-06
                        CHANNELS 3 Zrotation Yrotation Xrotation
                        JOINT LeftHandRing4
                        {
                          OFFSET 2.651321 7e-06 2e-06
                          CHANNELS 3 Zrotation Yrotation Xrotation
                          JOINT LeftHandRingEnd
                          {
                            OFFSET 1.936105 0.077687 -7.1e-05
                            CHANNELS 3 Zrotation Yrotation Xrotation
                          }
                        }
                      }
                    }
                  }
                  JOINT LeftHandPinky1
                  {
                    OFFSET 2.8655 -0.310005 -1.600378
                    CHANNELS 3 Zrotation Yrotation Xrotation
                    JOINT LeftHandPinky2
                    {
                      OFFSET 5.087849 -1.331141 -1.77123
                      CHANNELS 3 Zrotation Yrotation Xrotation
                      JOINT LeftHandPinky3
                      {
                        OFFSET 3.070974 4e-06 0.0
                        CHANNELS 3 Zrotation Yrotation Xrotation
                        JOINT LeftHandPinky4
                        {
                          OFFSET 1.549672 0.0 1e-06
                          CHANNELS 3 Zrotation Yrotation Xrotation
                          JOINT LeftHandPinkyEnd
                          {
                            OFFSET 1.944893 -0.157802 0.057219
                            CHANNELS 3 Zrotation Yrotation Xrotation
                          }
                        }
                      }
                    }
                  }
                }
              }
            }
          }
          JOINT RightShoulder
          {
            OFFSET -1.380118 23.180309 5.214158
            CHANNELS 3 Zrotation Yrotation Xrotation
            JOINT RightArm
            {
              OFFSET -15.037196 1.2e-05 -5.545604
              CHANNELS 3 Zrotation Yrotation Xrotation
              JOINT RightForeArm
              {
                OFFSET -28.736639 2e-06 -0.002597
                CHANNELS 3 Zrotation Yrotation Xrotation
                JOINT RightHand
                {
                  OFFSET -27.133619 -0.0 0.002613
                  CHANNELS 3 Zrotation Yrotation Xrotation
                  JOINT RightHandThumb1
                  {
                    OFFSET -2.274032 -1.383988 3.163127
                    CHANNELS 3 Zrotation Yrotation Xrotation
                    JOINT RightHandThumb2
                    {
                      OFFSET -4.011429 -1.827466 1.640914
                      CHANNELS 3 Zrotation Yrotation Xrotation
                      JOINT RightHandThumb3
                      {
                        OFFSET -2.794935 -4e-06 -3e-06
                        CHANNELS 3 Zrotation Yrotation Xrotation
                        JOINT RightHandThumbEnd
                        {
                          OFFSET -3.183852 4e-06 1e-06
                          CHANNELS 3 Zrotation Yrotation Xrotation
                        }
                      }
                    }
                  }
                  JOINT RightHandIndex1
                  {
                    OFFSET -3.253266 -0.520057 2.282866
                    CHANNELS 3 Zrotation Yrotation Xrotation
                    JOINT RightHandIndex2
                    {
                      OFFSET -6.341917 0.012471 0.178266
                      CHANNELS 3 Zrotation Yrotation Xrotation
                      JOINT RightHandIndex3
                      {
                        OFFSET -3.654871 -8e-06 -0.0
                        CHANNELS 3 Zrotation Yrotation Xrotation
                        JOINT RightHandIndex4
                        {
                          OFFSET -2.327586 0.0 1e-06
                          CHANNELS 3 Zrotation Yrotation Xrotation
                          JOINT RightHandIndexEnd
                          {
                            OFFSET -2.76179 -0.180656 -0.113078
                            CHANNELS 3 Zrotation Yrotation Xrotation
                          }
                        }
                      }
                    }
                  }
                  JOINT RightHandMiddle1
                  {
                    OFFSET -3.168106 0.246593 1.00103
                    CHANNELS 3 Zrotation Yrotation Xrotation
                    JOINT RightHandMiddle2
                    {
                      OFFSET -6.180828 -0.258836 -1.000895
                      CHANNELS 3 Zrotation Yrotation Xrotation
                      JOINT RightHandMiddle3
                      {
                        OFFSET -4.348901 0.0 -0.0
                        CHANNELS 3 Zrotation Yrotation Xrotation
                        JOINT RightHandMiddle4
                        {
                          OFFSET -3.00024 -4e-06 -2e-06
                          CHANNELS 3 Zrotation Yrotation Xrotation
                          JOINT RightHandMiddleEnd
                          {
                            OFFSET -2.30252 -0.29437 -0.031706
                            CHANNELS 3 Zrotation Yrotation Xrotation
                          }
                        }
                      }
                    }
                  }
                  JOINT RightHandRing1
                  {
                    OFFSET -2.88569 -0.067952 -0.308858
                    CHANNELS 3 Zrotation Yrotation Xrotation
                    JOINT RightHandRing2
                    {
                      OFFSET -5.854198 -0.48613 -1.373731
                      CHANNELS 3 Zrotation Yrotation Xrotation
                      JOINT RightHandRing3
                      {
                        OFFSET -4.33881 -4e-06 -0.0
                        CHANNELS 3 Zrotation Yrotation Xrotation
                        JOINT RightHandRing4
                        {
                          OFFSET -2.654903 -4e-06 4e-06
                          CHANNELS 3 Zrotation Yrotation Xrotation
                          JOINT RightHandRingEnd
                          {
                            OFFSET -1.933568 0.077527 -5.2e-05
                            CHANNELS 3 Zrotation Yrotation Xrotation
                          }
                        }
                      }
                    }
                  }
                  JOINT RightHandPinky1
                  {
                    OFFSET -2.866425 -0.342796 -1.584145
                    CHANNELS 3 Zrotation Yrotation Xrotation
                    JOINT RightHandPinky2
                    {
                      OFFSET -5.091371 -1.332055 -1.772385
                      CHANNELS 3 Zrotation Yrotation Xrotation
                      JOINT RightHandPinky3
                      {
                        OFFSET -3.062664 -4e-06 1e-06
                        CHANNELS 3 Zrotation Yrotation Xrotation
                        JOINT RightHandPinky4
                        {
                          OFFSET -1.546529 4e-06 -2e-06
                          CHANNELS 3 Zrotation Yrotation Xrotation
                          JOINT RightHandPinkyEnd
                          {
                            OFFSET -1.945119 -0.157718 0.057211
                            CHANNELS 3 Zrotation Yrotation Xrotation
                          }
                        }
                      }
                    }
                  }
                }
              }
            }
          }
        }
      }
    }
    JOINT LeftLeg
    {
      OFFSET 10.043214 -8.434526 2.595655
      CHANNELS 3 Zrotation Yrotation Xrotation
      JOINT LeftShin
      {
        OFFSET -1e-06 -43.221752 -0.802913
        CHANNELS 3 Zrotation Yrotation Xrotation
        JOINT LeftFoot
        {
          OFFSET 1e-06 -42.155094 -3.481523
          CHANNELS 3 Zrotation Yrotation Xrotation
          JOINT LeftToeBase
          {
            OFFSET 0.0 -5.059472 13.231529
            CHANNELS 3 Zrotation Yrotation Xrotation
            JOINT LeftToeEnd
            {
              OFFSET -0.009607 -1.647619 6.513017
              CHANNELS 3 Zrotation Yrotation Xrotation
            }
          }
        }
      }
    }
    JOINT RightLeg
    {
      OFFSET -10.047278 -8.29526 2.620317
      CHANNELS 3 Zrotation Yrotation Xrotation
      JOINT RightShin
      {
        OFFSET 1e-06 -43.362206 -0.805556
        CHANNELS 3 Zrotation Yrotation Xrotation
        JOINT RightFoot
        {
          OFFSET 2e-06 -42.117393 -3.478398
          CHANNELS 3 Zrotation Yrotation Xrotation
          JOINT RightToeBase
          {
            OFFSET -0.0 -5.079609 13.284196
            CHANNELS 3 Zrotation Yrotation Xrotation
            JOINT RightToeEnd
            {
              OFFSET 0.009532 -1.634378 6.460591
              CHANNELS 3 Zrotation Yrotation Xrotation
            }
          }
        }
      }
    }
  }
}
MOTION
Frames: 4
Frame Time: 0.03333333333333333
0.0 0.0 0.0 0.0 -0.0 0.0 1.389006 49.976097 3.751088 1.569633 0.386178 53.927544 -0.868128 0.79415 19.554699 -0.642938 -0.014805 1.16999 -1.276816 -1.592484 7.858927 -1.716257 3.642078 0.300712 0.282171 0.449018 -3.762716 1.742596 0.739073 -5.354506 7.7e-05 -2.2e-05 6e-06 -0.018544 0.027177 -0.193497 0.667198 -3.638072 -10.429688 -0.703498 3.696198 -10.464074 20.422871 -19.830473 0.661327 -26.910484 -58.137199 -8.347291 1.017704 -16.60335 -0.053101 64.302788 -7.872959 -11.11605 -5.882114 9.861291 0.702589 -10.936881 -0.360573 7.15621 -2e-06 8.774827 -2e-06 -15.544793 18.110146 6.359282 -1.844033 2.498506 -2.507278 -10.163608 4.678948 4.621111 -20.97604 -0.0 5e-06 -21.226303 2.451702 -3.594003 -1e-06 -6e-06 0.0 -1.362682 2.240799 -0.746323 -21.33493 0.584912 3.008327 -13.821228 -0.0 3e-06 -23.887192 -0.249075 -0.839484 -59.695023 2.561325 -1.753095 -0.294024 1.679688 0.833256 -14.218224 0.093218 1.300583 -34.212078 -0.287559 0.967171 -20.03323 0.96454 1.212844 0.0 -0.0 1e-06 -3.44039 0.788233 0.501656 -15.9282 -3.16731 2.999711 -6.338832 -1e-06 1e-06 -18.123461 3.648186 -4.905674 -5e-06 -0.0 -1e-06 -15.489501 21.451315 1.990963 28.358229 56.63176 -20.601603 1.384283 19.121378 0.252636 -69.172638 11.483413 -0.826853 2.243544 -5.25504 -3.18016 14.282908 -0.826595 6.952511 1e-06 -12.690614 -2e-06 16.836023 -18.172035 2.495668 1.665667 -1.955923 -2.878301 4.727805 -4.17059 4.993927 11.020538 3e-06 2e-06 12.109065 -3.735721 -2.866784 -1e-06 -0.0 0.0 1.291986 -1.928551 -1.498089 14.800146 0.567466 3.865613 14.242589 -1.34174 -6.660661 19.631992 0.143919 -0.648242 50.111481 -0.855111 -6.406354 0.353029 -1.511152 -0.031941 20.222813 3.684309 2.316636 18.787294 1e-06 1e-06 10.751641 -0.479871 1.397908 -1e-06 -0.0 -0.0 3.27381 0.305948 -0.58011 21.486837 11.830379 2.26614 8.162937 1e-06 -1e-06 18.399107 -3.79899 -4.94058 2e-06 0.0 -1e-06 -0.202515 7.467519 -48.439175 -0.472033 -0.427265 93.867706 -2.092631 11.282297 20.376978 2.160643 -2.3479 -1.048602 -0.0 0.0 2e-06 -3.057189 -1.933331 -44.100922 0.092237 0.806899 86.598839 21.93009 -3.915234 37.374928 -2.161551 0.865038 3.887626 -0.0 -0.0 -2e-06 
0.0 0.0 0.0 0.0 -0.0 0.0 1.321726 49.956753 3.813536 1.388006 0.636652 53.879559 -0.761924 0.804892 19.540466 -0.616794 0.097767 1.117609 -1.210998 -1.49917 7.911005 -1.946033 3.498857 0.286597 0.300049 0.404972 -3.735437 1.754507 0.739343 -5.456506 7.7e-05 -2.3e-05 5e-06 -0.031968 0.021565 -0.19117 0.64952 -3.646519 -10.425953 -0.710735 3.690341 -10.451685 20.2087 -19.983753 0.880946 -26.284433 -58.361172 -9.060537 0.876269 -16.180767 -0.048266 64.316071 -8.626076 -10.673168 -5.882112 9.861295 0.702587 -10.936881 -0.360577 7.156213 -2e-06 8.774833 -5e-06 -15.577119 18.139935 6.329448 -1.844035 2.498508 -2.50728 -10.16361 4.678949 4.621111 -20.976049 -0.0 5e-06 -21.226311 2.451703 -3.594004 -1e-06 -5e-06 1e-06 -1.362683 2.240801 -0.746325 -21.334932 0.584911 3.008328 -13.821229 -1e-06 3e-06 -23.887196 -0.249075 -0.839484 -59.790371 2.437946 -1.717834 -0.294025 1.679689 0.833254 -14.218223 0.093215 1.300584 -34.212082 -0.287559 0.967174 -20.033232 0.96454 1.212845 -0.0 -0.0 0.0 -3.440392 0.788234 0.501655 -15.928203 -3.167312 2.999712 -6.338833 -1e-06 2e-06 -18.123466 3.648188 -4.905676 -5e-06 0.0 -1e-06 -15.246027 21.611408 2.254552 27.643747 56.585155 -21.329288 1.248141 19.049036 0.222289 -68.879906 11.442705 -0.865376 2.243543 -5.255039 -3.180159 14.282896 -0.826595 6.952507 -1e-06 -12.69061 -1e-06 16.794872 -18.156828 2.574534 1.665666 -1.955923 -2.878299 4.727801 -4.17059 4.993924 11.020528 3e-06 -1e-06 12.109056 -3.73572 -2.866785 -1e-06 -0.0 0.0 1.291987 -1.92855 -1.498089 14.800136 0.567468 3.865611 14.242575 -1.341739 -6.66066 19.631975 0.143923 -0.648243 50.35302 -0.787777 -6.285805 0.353028 -1.51115 -0.03194 20.222801 3.684311 2.316634 18.787283 3e-06 0.0 10.751634 -0.479869 1.397907 -0.0 -0.0 0.0 3.273808 0.305946 -0.580112 21.486822 11.830378 2.266138 8.16293 1e-06 1e-06 18.399092 -3.798988 -4.940577 2e-06 0.0 -1e-06 0.203689 7.734463 -48.351166 -0.512584 -0.468257 93.881653 -1.567091 11.123203 20.318598 2.133386 -2.379923 -1.016559 -0.0 -0.0 1e-06 -2.688931 -1.819769 -43.924843 0.079733 0.731539 86.392151 21.874361 -4.057388 37.552605 -2.182963 0.849405 4.060396 -0.0 0.0 -3e-06 
0.0 0.0 0.0 0.0 -0.0 0.0 1.121188 49.943687 3.823426 1.321322 0.802452 53.738731 -0.719891 0.809516 19.54134 -0.623771 0.173861 1.0939 -1.22859 -1.456289 7.993021 -2.084944 3.387201 0.347702 0.286487 0.351916 -3.734057 1.752963 0.748852 -5.697457 7.7e-05 -2.2e-05 5e-06 -0.058062 0.025645 -0.186183 0.624379 -3.655063 -10.465631 -0.736592 3.703254 -10.472856 19.98494 -20.179747 1.11697 -25.521217 -58.280994 -9.531587 0.83308 -16.083822 -0.036561 64.306129 -8.987528 -10.352084 -5.88211 9.861288 0.702591 -10.936873 -0.360575 7.156206 -2e-06 8.774825 -1e-06 -15.623399 18.151064 6.315114 -1.844032 2.498504 -2.507278 -10.163604 4.678947 4.621108 -20.97603 -3e-06 2e-06 -21.226294 2.451698 -3.594002 -0.0 -6e-06 1e-06 -1.362682 2.240799 -0.746323 -21.334921 0.584911 3.008322 -13.821219 -2e-06 1e-06 -23.887178 -0.249078 -0.839485 -59.895611 2.37908 -1.659984 -0.294026 1.679688 0.833255 -14.218215 0.093216 1.30058 -34.212059 -0.287563 0.967167 -20.033218 0.964536 1.212842 -0.0 -0.0 0.0 -3.440389 0.788234 0.501656 -15.928191 -3.167309 2.999706 -6.338829 -1e-06 0.0 -18.123455 3.648184 -4.905673 -5e-06 0.0 -2e-06 -14.969495 21.964834 2.556591 26.753435 56.35466 -22.278282 1.149198 19.113527 0.199365 -68.722473 11.566828 -0.538039 2.243541 -5.255037 -3.180158 14.282893 -0.826594 6.952506 -1e-06 -12.690604 -1e-06 16.766167 -18.110247 2.611841 1.665664 -1.955921 -2.878299 4.727799 -4.170586 4.993925 11.020528 4e-06 0.0 12.109056 -3.735717 -2.866783 -1e-06 -0.0 -1e-06 1.291984 -1.928548 -1.498089 14.800131 0.567468 3.86561 14.242575 -1.341737 -6.660658 19.631969 0.143926 -0.648242 50.446896 -0.740525 -6.199343 0.353031 -1.511151 -0.03194 20.222797 3.684309 2.316633 18.787279 3e-06 1e-06 10.75163 -0.479869 1.397907 -1e-06 0.0 -0.0 3.273807 0.305948 -0.58011 21.48682 11.830377 2.266136 8.162929 2e-06 0.0 18.399088 -3.798986 -4.940574 2e-06 0.0 -1e-06 0.599768 7.947215 -48.196667 -0.554002 -0.510761 93.954636 -1.395546 10.732203 20.083656 2.112814 -2.397464 -1.143129 -0.0 0.0 2e-06 -2.365911 -1.662508 -43.723236 0.07485 0.640527 86.321274 21.985909 -4.037899 37.581486 -2.194398 0.815742 3.917269 -0.0 -0.0 -2e-06 
0.0 0.0 0.0 0.0 -0.0 0.0 0.852068 49.93137 3.760365 1.241845 0.931831 53.567677 -0.740059 0.804272 19.53574 -0.659524 0.229885 1.094494 -1.264155 -1.455547 8.098976 -2.157869 3.276596 0.329325 0.246658 0.335568 -3.722167 1.750575 0.807907 -5.977163 7.7e-05 -2.2e-05 5e-06 -0.079874 0.030602 -0.187143 0.604715 -3.663614 -10.510329 -0.760931 3.719984 -10.498914 19.606033 -20.395731 1.372867 -24.542643 -57.888382 -10.118648 0.79639 -16.238825 -0.035502 64.412704 -9.352536 -9.782814 -5.882109 9.861285 0.702591 -10.936872 -0.360575 7.156205 2e-06 8.774825 0.0 -15.658604 18.125345 6.315349 -1.844034 2.498505 -2.507277 -10.163601 4.678946 4.621109 -20.976025 -3e-06 1e-06 -21.226288 2.451697 -3.594001 -1e-06 -6e-06 1e-06 -1.362681 2.240797 -0.746323 -21.334917 0.584911 3.008322 -13.821218 -3e-06 1e-06 -23.887175 -0.249078 -0.839485 -59.977612 2.379179 -1.64384 -0.294024 1.679687 0.833257 -14.218212 0.093216 1.300579 -34.212051 -0.287563 0.967167 -20.033215 0.964535 1.212842 -0.0 -0.0 0.0 -3.440389 0.788234 0.501655 -15.928187 -3.167308 2.999705 -6.338827 -1e-06 1e-06 -18.123449 3.648183 -4.905671 -5e-06 0.0 -2e-06 -14.676567 22.409174 2.815822 25.833172 56.104229 -23.057549 1.04175 19.276213 0.164976 -68.578697 11.58546 -0.09557 2.243542 -5.255037 -3.180159 14.282896 -0.826595 6.952503 -3e-06 -12.690605 -1e-06 16.782331 -18.098175 2.651922 1.665666 -1.955922 -2.878299 4.727798 -4.170588 4.993924 11.020528 4e-06 -2e-06 12.109053 -3.735716 -2.866785 -1e-06 1e-06 -1e-06 1.291986 -1.928549 -1.498089 14.800132 0.567468 3.865607 14.242579 -1.341737 -6.660658 19.631973 0.143925 -0.648245 50.56847 -0.736142 -6.126142 0.353028 -1.51115 -0.03194 20.222797 3.68431 2.31663 18.787273 5e-06 -1e-06 10.75163 -0.479868 1.397906 -1e-06 -0.0 0.0 3.273807 0.305948 -0.580111 21.486818 11.830377 2.266133 8.162927 2e-06 -1e-06 18.399082 -3.798985 -4.940575 2e-06 0.0 -1e-06 1.055536 8.106863 -48.08205 -0.600183 -0.537006 94.143517 -1.507141 10.276789 19.71678 2.106929 -2.391014 -1.403284 -0.0 0.0 2e-06 -2.015492 -1.411012 -43.587055 0.061759 0.53043 86.403008 22.175264 -3.872366 37.41246 -2.190763 0.783703 3.714184 -0.0 0.0 -2e-06 
